
        <svg xmlns="http://www.w3.org/2000/svg" xmlns:xlink="http://www.w3.org/1999/xlink" version="1.1" width="3192" 
        height="3172.7499680757883" viewBox="0 0 3192 3172.7499680757883">
			<rect fill="#000000" width="3192" height="3172.7499680757883"/>
			<g transform="scale(9.6) translate(10, 10)">
				<defs id="SvgjsDefs1682"><linearGradient id="SvgjsLinearGradient1691"><stop id="SvgjsStop1692" stop-color="#8f5e25" offset="0"></stop><stop id="SvgjsStop1693" stop-color="#fbf4a1" offset="0.5"></stop><stop id="SvgjsStop1694" stop-color="#8f5e25" offset="1"></stop></linearGradient><linearGradient id="SvgjsLinearGradient1695"><stop id="SvgjsStop1696" stop-color="#8f5e25" offset="0"></stop><stop id="SvgjsStop1697" stop-color="#fbf4a1" offset="0.5"></stop><stop id="SvgjsStop1698" stop-color="#8f5e25" offset="1"></stop></linearGradient><linearGradient id="SvgjsLinearGradient1699"><stop id="SvgjsStop1700" stop-color="#8f5e25" offset="0"></stop><stop id="SvgjsStop1701" stop-color="#fbf4a1" offset="0.5"></stop><stop id="SvgjsStop1702" stop-color="#8f5e25" offset="1"></stop></linearGradient><linearGradient id="SvgjsLinearGradient1703"><stop id="SvgjsStop1704" stop-color="#8f5e25" offset="0"></stop><stop id="SvgjsStop1705" stop-color="#fbf4a1" offset="0.5"></stop><stop id="SvgjsStop1706" stop-color="#8f5e25" offset="1"></stop></linearGradient></defs><g id="SvgjsG1683" featureKey="rootContainer" transform="matrix(2.9236796135375216,0,0,2.9236796135375216,0.1299413301952278,-0.29236796571037427)" fill="url(#SvgjsLinearGradient1691)"><g xmlns="http://www.w3.org/2000/svg"><path d="M102 104.2c-4.4-.2-9.4-.3-14.7-.3H60l-8.2.2c-5 .1-9.9.1-15.1 0l-15-.2H2.1c0-1.5 0-3 .1-4.4s0-2.1-.1-3.2C2 93.6 2 90.9 2 88.2s.1-5.9 0-8.7v-14l-.3-24.3c0-4.3-.1-8.6 0-13V23c0-4.1-.1-7.8-.1-11.8s-.1-6.4-.2-9.1l6-.4L6 1.4.7 1.2H.5v3.5C.3 8.3.1 12 .1 15.9 0 24.1.1 32.4 0 40.7v4.6c-.1 2.7 0 5.3 0 8 0 4.8.2 9.6 0 14.5v1.9c.1 4.9.2 9.7 0 14.6v22h.7l13.2-.2h5.4l9.7-.2c4.4-.2 9.2-.3 14.5-.3h6.2c6.7 0 12.9.2 19.7.2h10c7.3-.1 15.2-.1 21.4-.5h1.7l1.7-.3c1.6-.4.6-.7-2.2-.8z"></path><path d="M106.7 85.4c0-1.3-.1-2.6-.1-4 0-3.7-.1-7.4-.1-11.1 0-6.9-.2-12.9-.4-19.3-.1-3 0-6.3-.1-9.5.2-4.7.3-10.5.5-15.8s.2-11.6 0-17.4c-.1-2.1-.1-4.5-.1-6.8V.1H93.5L73.8.5H59.3l-5.6.4H34.4c-4-.1-7.8.1-11.6.1l-5.5.5c-.4 0 .1.1.6.2A72.5 72.5 0 0 0 26 2h12.3c5 0 10-.1 13.6-.4l4.9.2a29.3 29.3 0 0 0 4.1.1h28.7l8.5-.2h6.7v4.4c.1 4.9 0 10 .2 14.8V27l.4 10.1c0 .8.1 1.8.1 2.3.3 2.7.3 6.6.2 10.2s-.2 9.6-.3 13.9c-.2 6.8-.2 13.7-.1 20.6 0 3.5.1 6.7.1 10.4s0 5.4.1 8.1.2 3.4.3 3l.8-2.3.2-7.2c.1-3.8 0-7.2-.1-10.7z"></path></g></g><g id="SvgjsG1684" featureKey="symbolFeature-0" transform="matrix(1.1039375351751135,0,0,1.1039375351751135,87.56436499164501,55.10524564698906)" fill="url(#SvgjsLinearGradient1695)"><path xmlns="http://www.w3.org/2000/svg" d="M123.59,55.27C123.481,55.27,123.481,55.27,123.59,55.27L123.59,55.27C123.481,55.27,123.59,55.27,123.59,55.27z"></path><path xmlns="http://www.w3.org/2000/svg" d="M49.522,48.227c-0.053-0.017-0.106-0.022-0.161-0.013c-0.152,0.025-0.503,0.1-0.903,0.309c-0.055,0.029-0.123,0.029-0.177,0  c-0.4-0.209-0.75-0.284-0.903-0.309c-0.055-0.009-0.108-0.004-0.161,0.013c-1.668,0.53-2.625,2.504-2.625,2.504  s0.3,0.305,0.764,0.232c0.3-0.047,1.046-0.283,1.537-0.444c0.304-0.1,0.629-0.091,0.929,0.023l0,0c0.354,0.135,0.741,0.135,1.094,0  c0.3-0.114,0.625-0.123,0.929-0.023c0.491,0.161,1.238,0.396,1.538,0.444c0.464,0.073,0.764-0.232,0.764-0.232  S51.19,48.757,49.522,48.227z"></path><path xmlns="http://www.w3.org/2000/svg" d="M98.616,25.247C98.616,25.247,98.616,25.246,98.616,25.247c-0.021-0.033-0.047-0.062-0.074-0.087  c-0.075-0.07-0.173-0.118-0.281-0.131c-0.013-0.001-0.025-0.002-0.037-0.003c-13.436-0.677-33.168,1.375-36.154,1.699l-1.388-3.551  c-3.012-7.707-12.158-11.624-20.394-8.726l-1.857,0.653c-4.153,1.46-7.421,4.374-9.202,8.205c-1.65,3.549-1.805,7.496-0.435,11.114  l1.342,3.542c-2.57,1.654-18.925,12.281-28.671,21.095c-0.155,0.141-0.207,0.363-0.128,0.558c0.076,0.189,0.26,0.313,0.464,0.313  c0.005,0,0.01,0,0.015,0c0.175-0.005,13.427-0.501,31.099-7.8c-0.157,2.341-0.758,4.97-2.271,7.535  c-0.876,1.485-2.036,2.776-3.335,3.909c-3.281,2.864-13.125,12.647-7.844,22.935c0,0,0.301-6.314,5.316-9.547  c1.318-0.849,2.849-1.308,4.407-1.487l3.057-0.352c0,0,2.407-0.359,4.909-1.404c2.369-0.99,4.1-3.05,4.67-5.554  c0.585-2.572,0.882-6.628-0.17-12.638c1.282,0.911,2.736,1.691,4.331,2.313c0.632,0.251,1.376,0.373,2.275,0.373  c0.899,0,1.644-0.122,2.273-0.372c1.39-0.542,2.666-1.206,3.818-1.966l-0.392,7.872c0,0-0.175,4.671,1.711,7.515  c1.887,2.844,6.44,2.821,6.44,2.821s-3.844-1.859-4.563-5.984c-0.479-2.75,0.181-5.042,0.674-6.264  c0.203-0.503,0.402-1.006,0.591-1.513c0.471-1.256,0.983-2.495,1.544-3.714c1.337-2.906,3.272-9.177,3.881-16.214  c22.531-4.941,34.065-14.302,34.281-14.481c0.001,0,0.001,0,0.001-0.001c0,0,0,0,0.001,0v0c0,0,0,0,0,0h0.001  c0,0,0.002,0,0.002-0.002c0,0,0,0,0,0c0.021-0.018,0.041-0.037,0.059-0.058c0,0,0,0,0.001-0.001c0,0,0,0,0,0  c0.063-0.074,0.105-0.168,0.115-0.272c0.003-0.022,0.003-0.044,0.003-0.066C98.698,25.414,98.666,25.323,98.616,25.247z   M50.348,57.374c-0.571,0.228-1.255,0.338-2.09,0.338c-0.834,0-1.518-0.11-2.092-0.339c-1.627-0.634-3.105-1.431-4.396-2.37  l-0.253-0.179c-1.673-1.159-2.941-2.859-3.677-4.869c4.402-2.054,9.007-4.52,13.707-7.505c3.136-1.992,6.186-3.725,9.139-5.261  v3.387c0,0.207-0.009,0.414-0.024,0.621c-0.044,0.561-0.123,1.131-0.236,1.695l-1.328,5.682c-0.596,2.613-2.051,4.834-4.099,6.252  l-0.255,0.18C53.456,55.942,51.978,56.739,50.348,57.374z M65.196,34.946l-0.771,1.282c0.001-0.305,0.005-0.608-0.001-0.914  C64.682,35.191,64.941,35.065,65.196,34.946z M64.401,37.724l2-3.328c0.329-0.149,0.656-0.297,0.982-0.441l-3.042,5.063  C64.367,38.589,64.386,38.157,64.401,37.724z M65.124,39.172l3.445-5.733c0.323-0.138,0.641-0.271,0.96-0.404l-3.564,5.931  C65.681,39.033,65.412,39.106,65.124,39.172z M66.99,38.715l3.702-6.161c0.317-0.128,0.628-0.249,0.941-0.372l-3.802,6.327  C67.555,38.58,67.27,38.646,66.99,38.715z M68.865,38.244l3.908-6.503c0.311-0.118,0.621-0.235,0.927-0.348l-3.974,6.613  C69.437,38.085,69.158,38.167,68.865,38.244z M70.775,37.716l4.043-6.726c0.305-0.109,0.611-0.219,0.911-0.323l-4.093,6.811  C71.357,37.559,71.059,37.636,70.775,37.716z M72.708,37.149l4.119-6.854c0.301-0.1,0.597-0.197,0.893-0.293l-4.132,6.875  C73.297,36.968,73.005,37.059,72.708,37.149z M74.663,36.546l4.14-6.889c0.297-0.092,0.586-0.178,0.877-0.266l-4.117,6.851  C75.261,36.343,74.972,36.446,74.663,36.546z M76.664,35.867l4.08-6.789c0.29-0.084,0.581-0.168,0.865-0.247l-4.044,6.73  C77.274,35.663,76.961,35.764,76.664,35.867z M78.691,35.141l3.962-6.593c0.287-0.076,0.571-0.151,0.852-0.223l-3.89,6.472  C79.313,34.912,79.001,35.026,78.691,35.141z M80.755,34.356l3.781-6.29c0.284-0.069,0.56-0.133,0.836-0.198l-3.669,6.105  C81.389,34.1,81.078,34.228,80.755,34.356z M82.862,33.5l3.523-5.862c0.278-0.062,0.555-0.123,0.825-0.18l-3.375,5.617  C83.51,33.216,83.198,33.357,82.862,33.5z M85.021,32.557l3.188-5.305c0.277-0.055,0.544-0.105,0.811-0.155l-3,4.992  C85.686,32.246,85.369,32.4,85.021,32.557z M87.24,31.515l2.761-4.595c0.272-0.048,0.538-0.093,0.798-0.135l-2.535,4.218  C87.926,31.172,87.597,31.341,87.24,31.515z M89.529,30.354l2.237-3.722c0.269-0.04,0.532-0.079,0.786-0.114l-1.968,3.275  C90.247,29.977,89.889,30.165,89.529,30.354z M93.007,28.411c-0.351,0.209-0.716,0.423-1.106,0.645l1.601-2.663  c0.268-0.033,0.526-0.064,0.772-0.091L93.007,28.411z M94.391,27.564l0.816-1.358c0.532-0.05,1.006-0.088,1.401-0.114  C96.057,26.482,95.302,26.988,94.391,27.564z"></path><path xmlns="http://www.w3.org/2000/svg" d="M49.316,51.319c0,0-0.467,0.241-0.947,0.241c-0.48,0-0.947-0.241-0.947-0.241c-1.653-0.876-2.469,0.3-2.469,0.3  s1.499,2.422,3.417,2.402c1.918,0.02,3.417-2.402,3.417-2.402S50.969,50.443,49.316,51.319z"></path></g><g id="SvgjsG1685" featureKey="nameFeature-0" transform="matrix(1.4888040395986073,0,0,1.4888040395986073,56,152.18151642833328)" fill="url(#SvgjsLinearGradient1699)"><path d="M0 30.6 c0 -4.28 4.4 -9.48 8.84 -9.48 c1.04 0 2.32 0.4 2.52 1.56 c0 0.56 -0.08 1.76 -0.84 1.76 c-0.24 0 -0.44 -0.16 -0.44 -0.4 c0 -0.36 0.24 -0.64 0.24 -1 l0 -0.12 c-0.08 -0.2 -0.24 -0.28 -0.44 -0.28 c-1.96 0 -6.16 5.96 -6.16 8.44 c0 1.4 1.12 1.68 2.28 1.68 c1 -0.12 1.92 -0.84 2.68 -1.4 c0.16 -0.12 0.72 -0.6 0.84 -0.68 c0.28 -0.24 1.08 -1 1.16 -1.08 l2.08 -2.12 l2.72 -3.2 c0.2 -0.24 0.32 -0.36 0.36 -0.64 l0.04 0 c0.28 0 0.88 0.04 0.88 0.44 l0 0.4 l-0.16 0 l-1.2 1.52 l-2.16 2.48 l-2.48 2.52 c-0.08 0.08 -0.68 0.64 -0.88 0.76 c-1.56 1.32 -3.44 2.64 -5.56 2.64 c-2.48 0 -4.32 -1.16 -4.32 -3.8 z M13.892000000000001 31.8 c0 -1.8 1.04 -3.72 1.96 -5.2 c1.48 -2.32 4.48 -6.04 7.6 -6.04 c1.48 0 2.08 1.08 2.08 2.48 c0 1.8 -0.96 3.64 -1.8 5.2 c0.4 0 0.8 -0.12 1.16 -0.28 c1.84 -0.68 3.36 -2.16 4.44 -3.72 l0.04 -0.04 c0.48 0 0.64 0.08 0.8 0.6 c-0.08 0.16 -0.4 0.56 -0.4 0.6 c-0.04 0.04 -0.28 0.36 -0.36 0.44 c-1.56 1.84 -3.92 3.52 -6.4 3.52 l0 0.04 c-1.2 1.6 -4.16 5.28 -6.36 5.28 c-1.76 0 -2.76 -1.12 -2.76 -2.88 z M21.212000000000003 25.8 c0 0.76 0.12 1.76 0.84 2.24 c0.12 0.04 0.28 0.16 0.44 0.16 c0.92 -1.36 2 -3.52 2 -5.2 c0 -0.72 -0.28 -1.4 -1.08 -1.4 c-1.12 0 -1.88 1.84 -2.04 2.72 c-0.12 0.48 -0.16 0.96 -0.16 1.48 z M17.372 32 c0 0.32 0.08 0.64 0.44 0.64 c0.8 0 1.6 -0.72 2.08 -1.24 c0.12 -0.08 0.56 -0.52 0.64 -0.64 c0.12 -0.16 0.8 -0.96 0.96 -1.12 c0.04 -0.08 0.32 -0.44 0.36 -0.48 c0 -0.04 -0.52 -0.28 -0.6 -0.32 c-0.88 -0.56 -1.32 -1.48 -1.52 -2.52 l0 0.04 c-0.04 0 -0.32 0.48 -0.44 0.68 c-0.68 1.16 -1.92 3.56 -1.92 4.96 z M27.984 26.28 c0 -3.16 2.08 -6.48 5.56 -6.48 c0.52 0 1 0.24 1.28 0.68 c0.04 0.12 0.4 0.68 0.44 0.84 c0 0 -0.08 0 -0.12 -0.04 c-0.44 -0.2 -0.84 -0.48 -1.32 -0.48 c-1.64 0 -2.64 2.56 -2.64 3.92 c0 0.52 0.08 1 0.24 1.48 l0.76 2.64 l0.12 0.8 c0.04 0 0.12 -0.08 0.16 -0.08 l1.84 -0.88 c1.8 -0.92 3.36 -2.12 4.6 -3.68 c0.08 -0.08 0.24 -0.08 0.32 -0.08 c0.32 0 0.56 0.2 0.56 0.52 l0 0.12 c-0.88 1.52 -3.72 3.44 -5.24 4.12 l-2.16 1.04 l-0.04 0.08 c-0.04 0.76 -0.16 1.48 -0.44 2.2 c-1.24 3.12 -4.8 5.16 -8.08 5.16 c-0.88 -0.12 -1.56 -0.6 -1.72 -1.48 c0 -2.04 1.72 -3.12 3.32 -4 c0.2 -0.12 0.88 -0.48 1 -0.52 l2 -0.88 c0.04 0 0.04 -0.08 0.04 -0.08 l0 -0.4 c0 -0.16 0 -0.44 -0.04 -0.64 l-0.32 -2.4 c-0.08 -0.48 -0.12 -0.96 -0.12 -1.48 z M24.984 34.08 c-0.68 0.36 -1.32 1.24 -1.32 2.04 c0 0.44 0.32 0.6 0.72 0.6 c1.48 0 2.6 -1.76 3.24 -2.88 c0 -0.08 0.2 -0.44 0.28 -0.56 c0.08 -0.16 0.28 -0.56 0.28 -0.8 c-0.04 0 -0.96 0.44 -1.36 0.64 c-0.28 0.12 -1.56 0.8 -1.84 0.96 z M39.836000000000006 21.52 l0 -0.08 s0.16 -0.2 0.28 -0.32 c1.28 0.24 2.44 1.04 2.44 2.44 c0 0.2 -0.04 0.44 -0.12 0.6 l-1.24 2.88 c0.12 -0.16 0.64 -0.84 0.76 -0.96 c0.2 -0.28 1.24 -1.52 1.48 -1.76 c0.96 -1.2 3.04 -3.12 4.52 -3.12 c1.2 0 1.76 0.96 1.76 2.08 c0 0.88 -0.28 1.72 -0.72 2.52 l-1.72 3.28 c0.04 -0.08 0.32 -0.36 0.36 -0.4 l4.04 -4.04 l1.44 -1.24 c0.08 -0.08 0.76 -0.6 0.96 -0.76 c0.96 -0.64 2.12 -1.4 3.32 -1.4 c0.92 0 1.56 0.44 1.56 1.4 c0 0.72 -0.84 3.36 -1.4 3.92 l-2.36 4 c-0.48 0.84 -0.92 1.92 -0.92 2.88 c0 0.36 0 0.96 0.4 1.12 l0.12 0 c1.12 0 2.24 -1.16 2.88 -1.92 c0.12 -0.12 0.6 -0.64 0.68 -0.72 c0.2 -0.28 0.92 -1.2 1 -1.32 l3.92 -5.72 c0.16 -0.24 0.28 -0.4 0.28 -0.68 l0.2 0 c0.32 0 0.52 0 0.72 0.32 c0.04 0.04 0.08 0.12 0.08 0.2 c0 0.04 0 0.04 -0.04 0.08 c-0.08 0.24 -0.44 0.76 -0.44 0.8 l-2.44 3.8 l-2.36 3.24 c-1 1.52 -3.44 3.72 -5.24 3.72 c-2 0 -3.12 -1.16 -3.12 -3.12 c0 -1.32 0.48 -2.56 1.08 -3.68 l1.8 -3.36 c0.16 -0.32 0.36 -0.68 0.36 -1.04 c0 -0.04 0 -0.12 -0.04 -0.16 l-0.08 0 c-0.52 0 -1.8 0.76 -2.24 1.2 c-0.28 0.24 -1.08 0.92 -1.16 1 l-2 1.96 l-2.6 2.84 l-1.72 2.36 c-0.36 0.48 -0.84 0.64 -1.44 0.64 c-0.8 0 -2.12 0 -2.12 -1.16 c0 -0.12 0 -0.24 0.04 -0.32 l4.16 -7.92 c0.08 -0.16 0.2 -0.44 0.24 -0.64 c-0.8 0.32 -1.48 1.08 -2.04 1.68 c-0.24 0.28 -0.88 1 -0.96 1.08 l-1.4 1.76 l-1.2 1.8 c-0.2 0.28 -0.48 0.76 -0.64 1.12 l-0.88 2.28 c0 0.04 0 0.04 -0.04 0.08 c-0.36 0.2 -0.76 0.36 -1.2 0.36 c-0.88 0 -1.76 -0.44 -2.32 -1.08 l0 -0.12 c0 -1 0.92 -3.72 1.32 -4.6 l0.96 -2.2 z M47.236000000000004 29.08 l0 0.04 c0.04 0 0.04 -0.04 0 -0.04 z M41.196000000000005 27.08 l0 -0.04 c-0.04 0 -0.04 0.04 0 0.04 z M61.328 31.16 c0 -4.48 4.48 -9.6 9.08 -9.6 c1.16 0 2.4 0.48 2.4 1.84 c0 2.8 -4.28 4.44 -6.76 4.72 c-0.2 0.72 -0.36 1.48 -0.36 2.28 c0 1.12 0.36 2.6 1.76 2.6 c1.2 0 2.44 -0.92 3.32 -1.64 c0.16 -0.16 0.76 -0.68 0.8 -0.72 l1.52 -1.52 l2.12 -2.28 l2.4 -3.04 c0.04 -0.04 0.12 -0.12 0.2 -0.16 c0.24 0 0.72 0.08 0.72 0.44 l-0.12 0.36 l-1.56 2.04 l-2.28 2.68 l-2.08 2.12 c-0.08 0.12 -0.76 0.68 -0.96 0.88 c-1.68 1.4 -3.68 2.72 -5.96 2.72 c-2.56 0 -4.24 -1.08 -4.24 -3.72 z M65.888 26.759999999999998 l0 0.04 c0.16 -0.04 0.88 -0.2 1.04 -0.24 c0.16 -0.08 0.8 -0.24 0.92 -0.28 c0.16 -0.08 0.76 -0.32 0.92 -0.36 c0.84 -0.36 2.44 -1.28 2.44 -2.4 c0 -0.4 -0.24 -0.68 -0.68 -0.68 c-1.68 0 -3.64 1.4 -4.32 2.88 c-0.12 0.32 -0.32 0.72 -0.32 1.04 z M80.86000000000001 18.64 l2.96 -5.56 l0.28 -0.44 c0.88 0.36 2.72 0.8 2.72 2 c0 0.16 0 0.36 -0.12 0.52 l-1.52 2.92 l0 0.04 c0.32 0 0.64 -0.04 0.96 -0.04 c1.4 0 2.8 0.4 2.8 2 c0 0.96 -0.52 1.76 -1.12 2.48 l-0.12 0 c-0.28 0 -0.72 -0.16 -0.72 -0.52 s0.16 -0.72 0.16 -1.04 c0 -0.96 -0.76 -0.96 -1.48 -0.96 c-0.4 0.04 -1.44 0.16 -1.44 0.16 l-0.08 0 l-0.96 1.96 l-2.6 6 l-0.72 2.04 c-0.32 1 -0.64 2.12 -0.64 3.2 c0 0.52 0.08 1.24 0.72 1.32 c2 0 3.56 -1.28 4.92 -2.6 l0.88 -0.88 l1.48 -1.68 l3.28 -4.12 s0.2 -0.28 0.28 -0.4 c0.04 -0.08 0.04 -0.16 0.04 -0.2 l0.04 -0.04 c0.4 0 0.92 0.08 0.92 0.6 l0 0.08 l-2.64 3.52 l-3.12 3.56 l-1.52 1.48 c-0.08 0.12 -0.88 0.8 -1.16 1 c-1 0.8 -2.36 1.76 -3.72 1.76 c-2.76 0 -3.96 -1.84 -3.96 -4.44 c0 -1.2 0.2 -2.4 0.6 -3.52 l0.64 -1.84 l1.12 -2.68 l1.84 -3.72 c-1.68 -0.12 -3.52 -0.68 -3.52 -2.76 c0 -0.56 0.04 -2 0.84 -2 c0.24 0 0.56 0.16 0.56 0.44 c0 0.24 -0.08 0.48 -0.08 0.72 c0 1.52 1.44 1.68 2.64 1.68 c0.16 0 0.56 -0.04 0.56 -0.04 z M92.19200000000002 20 c0 -1.4 1.52 -3 2.96 -3 c1 0 1.56 0.76 1.56 1.76 c0 1.4 -1.32 2.96 -2.8 2.96 c-0.96 0 -1.72 -0.72 -1.72 -1.72 z M87.43200000000002 31.4 c0 -1.24 0.44 -2.48 0.88 -3.64 c0.04 -0.12 0.24 -0.68 0.28 -0.72 l2 -4.32 c0.16 -0.36 0.4 -0.6 0.76 -0.6 c0.32 0 0.6 0.12 0.88 0.2 c0.68 0.24 1.68 0.64 1.68 1.52 c0 0.12 0 0.28 -0.08 0.36 c-0.56 0.92 -1.12 2.08 -1.6 3.08 c-0.08 0.2 -0.52 1.24 -0.6 1.48 c-0.28 0.72 -0.56 1.56 -0.56 2.32 c0 0.28 0.04 0.48 0.36 0.48 c0.64 0 1.32 -0.44 1.84 -0.72 c0.12 -0.08 0.56 -0.32 0.6 -0.36 c0.32 -0.24 1.28 -0.88 1.36 -0.96 l1.6 -1.2 l0.36 -0.36 l1.6 -1.76 l1.68 -2.12 c0.08 -0.08 0.24 -0.28 0.36 -0.32 c0.24 0 0.72 0.04 0.72 0.36 l0 0.28 l-0.92 1.24 l-1.36 1.68 l-1.6 1.72 c-0.12 0.12 -1 0.96 -1.28 1.2 c-1.64 1.64 -4.4 3.48 -6.76 3.48 c-1.44 0 -2.2 -0.92 -2.2 -2.32 z M98.84400000000002 30.6 c0 -4.28 4.4 -9.48 8.84 -9.48 c1.04 0 2.32 0.4 2.52 1.56 c0 0.56 -0.08 1.76 -0.84 1.76 c-0.24 0 -0.44 -0.16 -0.44 -0.4 c0 -0.36 0.24 -0.64 0.24 -1 l0 -0.12 c-0.08 -0.2 -0.24 -0.28 -0.44 -0.28 c-1.96 0 -6.16 5.96 -6.16 8.44 c0 1.4 1.12 1.68 2.28 1.68 c1 -0.12 1.92 -0.84 2.68 -1.4 c0.16 -0.12 0.72 -0.6 0.84 -0.68 c0.28 -0.24 1.08 -1 1.16 -1.08 l2.08 -2.12 l2.72 -3.2 c0.2 -0.24 0.32 -0.36 0.36 -0.64 l0.04 0 c0.28 0 0.88 0.04 0.88 0.44 l0 0.4 l-0.16 0 l-1.2 1.52 l-2.16 2.48 l-2.48 2.52 c-0.08 0.08 -0.68 0.64 -0.88 0.76 c-1.56 1.32 -3.44 2.64 -5.56 2.64 c-2.48 0 -4.32 -1.16 -4.32 -3.8 z M124.37600000000002 22.84 c0.24 -0.44 0.56 -1.28 1.2 -1.28 c0.28 0 0.52 0.16 0.8 0.32 c0.48 0.32 1.4 0.76 1.4 1.52 c0 0.28 -0.16 0.52 -0.28 0.72 l-1.44 3.04 l-1.48 3.68 l-0.56 1.72 l-0.4 1.44 c-0.08 0.4 -0.16 0.92 -0.16 1.4 c0 0.08 0 0.32 0.12 0.32 c0.36 0 0.76 -0.44 0.96 -0.64 l0.56 -0.56 c0.16 -0.2 0.72 -0.8 0.8 -0.88 l2.32 -2.8 l5.16 -6.96 c0.08 -0.08 0.16 -0.24 0.32 -0.24 c0.32 0 0.64 0.16 0.64 0.56 l0 0.08 l-1.12 1.64 l-4.88 6.52 l-1.88 2.16 c-0.08 0.04 -0.88 0.88 -1.16 1.16 c-0.52 0.52 -1.76 1.64 -2.56 1.64 c-1.92 0 -2.48 -1.68 -2.48 -3.32 c0 -1.48 0.4 -2.92 0.92 -4.32 c-0.04 0 -0.08 0.04 -0.08 0.04 c-0.12 0.08 -0.52 0.44 -0.6 0.52 l-1.76 1.52 c-0.12 0.08 -0.92 0.68 -1.16 0.84 c-0.76 0.56 -1.76 1.2 -2.76 1.2 c-1.4 0 -2.08 -1.12 -2.08 -2.4 c0 -1.04 0.36 -2.04 0.8 -2.96 c1.44 -3.12 4.84 -6.8 8.6 -6.8 c0.72 0 1.32 0.24 1.84 0.72 c0.08 0.04 0.36 0.4 0.4 0.4 z M115.77600000000002 31.68 c0 0.24 0.2 0.32 0.4 0.32 c0.4 0 0.8 -0.28 1.12 -0.48 c0.16 -0.12 0.72 -0.48 0.76 -0.52 l1.52 -1.2 l2.48 -2.36 l0.92 -1.96 c0.16 -0.32 0.28 -0.72 0.28 -1.08 c0 -0.28 -0.12 -0.4 -0.4 -0.4 c-0.48 0 -1.04 0.28 -1.48 0.52 c-2.2 1.2 -4.36 3.56 -5.28 5.92 c-0.16 0.36 -0.32 0.84 -0.32 1.24 z M121.17600000000002 29.759999999999998 l0 -0.04 l0 0.04 z"></path></g><g id="SvgjsG1686" featureKey="sloganFeature-0" transform="matrix(0.693475264237252,0,0,0.693475264237252,75.16782956717913,225.78227651990196)" fill="url(#SvgjsLinearGradient1703)"><path d="M14.98 7 l-1.4 1.64 q-0.82 -0.84 -1.96 -1.32 t-2.4 -0.48 q-1.64 0 -2.99 0.74 t-2.11 2.02 q-0.78 1.34 -0.78 2.98 q0 1.56 0.84 2.88 q0.8 1.24 2.15 1.97 t2.91 0.73 q1.44 0 2.68 -0.62 t2.06 -1.72 l1.34 1.82 q-1.14 1.28 -2.73 1.99 t-3.37 0.71 q-2.22 0 -4.08 -1.08 q-1.82 -1.04 -2.86 -2.86 q-1.08 -1.86 -1.08 -4.08 q0 -2.14 1.14 -3.94 q1.08 -1.72 2.93 -2.73 t3.97 -1.01 q1.66 0 3.16 0.64 q1.46 0.6 2.58 1.72 z M25.994 6.66 l-0.82 -1.84 l2.4 0 l7.18 15.18 l-2.44 0 l-0.98 -2.18 l-4.54 0 q-1.28 0 -2.3 0.24 q-0.9 0.22 -1.5 0.58 q-0.54 0.32 -0.72 0.66 l-0.38 0.7 l-2.36 0 z M27.594 15.620000000000001 l2.76 0 l-3.26 -6.3 l-3.3 7.14 q0.44 -0.38 1.34 -0.6 q1.02 -0.24 2.46 -0.24 z M42.548 7.26 l0 4.96 q0.62 -0.36 1.38 -0.48 q0.56 -0.1 1.44 -0.1 l2.84 0 q1.18 0 1.84 -0.54 q0.7 -0.58 0.7 -1.74 q0 -1.1 -0.74 -1.64 q-0.64 -0.46 -1.8 -0.46 l-5.66 0 z M48.928 17.64 l-1.82 -3.82 l-1.74 0 q-0.82 0 -1.44 0.1 q-0.76 0.14 -1.38 0.48 l0 5.6 l-2.18 0 l0 -14.92 l7.84 0 q1.38 0 2.44 0.52 t1.64 1.48 q0.62 1.02 0.62 2.4 q0 1.68 -0.9 2.76 t-2.54 1.5 l1.16 2.38 q0.5 0.74 0.78 1.04 q0.34 0.38 0.65 0.51 t0.81 0.13 l0.22 0 l0.48 -0.02 l0 2.22 q-1.16 0 -1.72 -0.08 q-0.94 -0.16 -1.6 -0.62 q-0.78 -0.56 -1.32 -1.66 z M62.162 14.02 l0 3.8 l9.2 0 l0 2.18 l-11.38 0 l0 -14.92 l10.5 0 l0 2.2 l-8.32 0 l0 4.52 q0.62 -0.36 1.38 -0.48 q0.56 -0.1 1.44 -0.1 l3.26 0 l0 2.22 l-3.26 0 q-0.82 0 -1.44 0.1 q-0.76 0.14 -1.38 0.48 z M90.85 11.64 q1.34 -1.4 2.42 -3.12 t1.72 -3.44 l2.5 0 q-1.02 2.38 -2.48 4.56 q-1.32 1.98 -3.08 3.9 l0 6.46 l-2.16 0 l0 -6.46 q-1.76 -1.92 -3.08 -3.9 q-1.46 -2.18 -2.48 -4.56 l2.5 0 q0.64 1.72 1.72 3.44 t2.42 3.12 z M115.904 12.440000000000001 q0 -1.6 -0.82 -2.9 q-0.78 -1.26 -2.13 -1.98 t-2.93 -0.72 q-1.64 0 -2.99 0.74 t-2.11 2.02 q-0.78 1.34 -0.78 2.98 q0 1.56 0.84 2.88 q0.8 1.24 2.15 1.97 t2.92 0.73 t2.92 -0.76 t2.13 -2.04 q0.8 -1.34 0.8 -2.92 z M118.06400000000001 12.559999999999999 q0 2.16 -1.12 3.98 q-1.08 1.74 -2.93 2.77 t-3.99 1.03 q-2.22 0 -4.08 -1.08 q-1.82 -1.04 -2.86 -2.86 q-1.08 -1.86 -1.08 -4.08 q0 -2.14 1.14 -3.94 q1.08 -1.72 2.93 -2.73 t3.97 -1.01 q2.18 0 4.04 1.06 q1.82 1.04 2.88 2.82 q1.1 1.86 1.1 4.04 z M130.778 20.34 q-2.1 0 -3.61 -0.73 t-2.3 -2.11 t-0.79 -3.3 l0 -9.12 l2.16 0 l0 9.12 q0 1.92 1.18 2.94 t3.36 1.02 t3.36 -1.02 t1.18 -2.94 l0 -9.12 l2.16 0 l0 9.12 q0 1.92 -0.79 3.3 t-2.3 2.11 t-3.61 0.73 z M146.672 7.26 l0 4.96 q0.62 -0.36 1.38 -0.48 q0.56 -0.1 1.44 -0.1 l2.84 0 q1.18 0 1.84 -0.54 q0.7 -0.58 0.7 -1.74 q0 -1.1 -0.74 -1.64 q-0.64 -0.46 -1.8 -0.46 l-5.66 0 z M153.052 17.64 l-1.82 -3.82 l-1.74 0 q-0.82 0 -1.44 0.1 q-0.76 0.14 -1.38 0.48 l0 5.6 l-2.18 0 l0 -14.92 l7.84 0 q1.38 0 2.44 0.52 t1.64 1.48 q0.62 1.02 0.62 2.4 q0 1.68 -0.9 2.76 t-2.54 1.5 l1.16 2.38 q0.5 0.74 0.78 1.04 q0.34 0.38 0.65 0.51 t0.81 0.13 l0.22 0 l0.48 -0.02 l0 2.22 q-1.16 0 -1.72 -0.08 q-0.94 -0.16 -1.6 -0.62 q-0.78 -0.56 -1.32 -1.66 z M183.94000000000003 15.46 q0 1.46 -0.88 2.6 q-0.86 1.08 -2.37 1.68 t-3.41 0.6 q-1.74 0 -3.38 -0.81 t-2.76 -2.25 l1.56 -1.46 q1.94 2.34 4.58 2.34 q1.16 0 2.12 -0.28 q1.06 -0.32 1.64 -0.9 q0.66 -0.64 0.66 -1.52 q0 -1.06 -0.66 -1.6 q-0.56 -0.46 -1.66 -0.6 q-0.64 -0.08 -2.1 -0.08 q-2.68 0 -4.09 -0.98 t-1.41 -2.88 q0 -1.2 0.71 -2.28 t1.95 -1.72 q1.28 -0.68 2.84 -0.68 q1.76 0 3.18 0.54 q1.52 0.58 2.82 1.82 l-1.36 1.6 q-1.22 -0.98 -2.22 -1.37 t-2.42 -0.39 q-0.82 0 -1.53 0.34 t-1.13 0.91 t-0.42 1.21 q0 1.72 3.18 1.72 q2.54 0 4.02 0.52 q1.4 0.5 2 1.52 q0.54 0.9 0.54 2.4 z M196.15400000000002 14.02 l-4.02 5.98 l-2.18 0 l0 -14.92 l2.18 0 l0 11.14 l7.58 -11.14 l2.62 0 l-4.9 7.02 l2.68 4.02 q0.64 0.96 1.26 1.36 q0.5 0.32 1.06 0.32 l0.62 -0.02 l0 2.22 l-0.4 0 q-1 0.02 -1.46 -0.08 q-0.74 -0.12 -1.36 -0.6 q-0.7 -0.56 -1.42 -1.68 z M211.40800000000002 20 l-2.14 0 l0 -14.92 l2.14 0 l0 14.92 z M219.062 7.18 l-1.74 -2.1 l2.82 0 l9.58 11.4 l0 -11.4 l2.2 0 l0 14.92 l-2.16 0 l-8.56 -10.26 l0 10.26 l-2.14 0 l0 -12.82 z"></path></g>
			</g>
		</svg>
	